<svg xmlns="http://www.w3.org/2000/svg" viewBox="104 162 816 668" width="100%" height="100%">
  <path d="M 115 696 L 115 791 L 130 806 L 208 806 L 223 791 L 223 696 L 208 696 L 208 777 L 193 792 L 145 792 L 130 777 L 130 696 Z M 256 696 L 256 806 L 338 806 L 338 792 L 271 792 L 271 696 Z M 382 696 L 367 710 L 367 744 L 382 758 L 441 758 L 456 772 L 456 778 L 442 792 L 367 792 L 367 806 L 456 806 L 471 792 L 471 758 L 456 744 L 397 744 L 382 730 L 382 724 L 396 710 L 471 710 L 471 696 Z M 674 696 L 674 806 L 689 806 L 689 717 L 730 758 L 771 717 L 771 806 L 786 806 L 786 696 L 771 696 L 730 737 L 689 696 Z M 822 696 L 910 696 L 910 710 L 837 710 L 837 744 L 889 744 L 889 758 L 837 758 L 837 792 L 910 792 L 910 806 L 822 806 Z M 512.0 173.0 512.0 173.0 L 718.5 292.2 L 718.5 530.8 L 512.0 650.0 L 305.5 530.8 L 305.5 292.2 Z M 512.0 205.2 512.0 205.2 L 333.3 308.3 L 333.3 514.7 L 512.0 617.8 L 690.7 514.7 L 690.7 308.3 Z M 367.0 416.0 L 367.0 497.0 L 508.0 578.4 L 508.0 424.0 L 480.0 440.2 L 480.0 530.0 L 395.0 481.0 L 395.0 432.2 Z M 539.0 270.0 L 539.0 567.0 L 657.0 499.0 L 657.0 466.0 L 567.0 518.0 L 567.0 286.2 Z" fill="#143359" fill-rule="evenodd" />
  <path d="M 571 682 L 630 716 L 630 786 L 571 820 L 512 786 L 512 716 Z M 571 699 L 616 725 L 616 777 L 571 803 L 526 777 L 526 725 Z" fill="#EF942C" fill-rule="evenodd" />
</svg>
